<?xml version="1.0" standalone="no"?>
<!DOCTYPE svg PUBLIC "-//W3C//DTD SVG 20010904//EN"
 "http://www.w3.org/TR/2001/REC-SVG-20010904/DTD/svg10.dtd">
<svg version="1.0" xmlns="http://www.w3.org/2000/svg"
 width="40pt" height="33pt" viewBox="0 0 500.000000 440.000000"
 preserveAspectRatio="xMidYMid meet">

<g transform="translate(0.000000,440.000000) scale(0.100000,-0.100000)"
fill="#bd2424" stroke="none">
<path d="M621 3669 c-41 -10 -93 -30 -115 -43 -106 -62 -164 -212 -136 -352
12 -65 49 -193 60 -209 3 -5 12 -30 19 -55 7 -25 17 -54 22 -65 16 -37 39
-139 39 -173 0 -95 -101 -186 -223 -201 l-50 -6 0 -125 -1 -125 65 -11 c98
-16 131 -34 177 -101 28 -40 30 -126 3 -209 -117 -366 -129 -421 -112 -518 22
-125 84 -207 185 -245 89 -33 96 -31 96 32 1 59 17 135 50 222 24 66 31 88 54
185 9 36 21 79 26 96 6 17 10 52 10 78 0 43 -4 51 -48 95 -48 48 -103 71 -170
71 -46 0 -54 18 -46 102 4 43 2 89 -4 112 -16 57 -3 76 53 76 24 0 57 5 72 12
41 18 113 68 113 78 0 5 -18 19 -40 30 -38 19 -46 40 -15 40 18 0 85 79 85 99
0 19 -24 88 -33 97 -4 4 -7 18 -7 30 0 13 -4 25 -9 28 -5 3 -11 18 -14 33 -2
16 -15 55 -27 88 -61 165 -66 276 -17 385 17 36 115 157 135 166 18 8 96 19
202 30 36 4 71 11 78 17 8 6 12 44 12 122 l0 113 -31 11 c-19 7 -104 11 -208
10 -139 -1 -192 -5 -250 -20z"/>
<path d="M3292 3679 c-23 -9 -23 -10 -20 -149 2 -96 7 -143 15 -148 16 -10
281 12 316 27 18 7 99 11 218 11 l191 0 -7 33 c-24 109 -109 184 -252 221 -69
18 -420 22 -461 5z"/>
<path d="M1921 3656 c-5 -6 -14 -29 -21 -51 -7 -22 -37 -105 -67 -185 -30 -80
-64 -173 -74 -208 -11 -35 -26 -65 -34 -68 -7 -3 -78 -6 -156 -7 l-143 -2 -8
-34 -9 -33 -62 5 c-34 3 -84 9 -112 13 -45 5 -55 3 -100 -28 -49 -32 -50 -34
-53 -88 -3 -58 2 -84 57 -275 52 -185 53 -199 5 -350 -7 -24 -9 -44 -3 -50 17
-17 11 -130 -9 -156 -32 -41 -34 -70 -6 -91 32 -26 50 -62 62 -125 9 -50 -1
-166 -17 -208 -23 -56 -30 -93 -25 -125 7 -46 -8 -142 -23 -147 -6 -2 -13 8
-16 24 -4 27 -4 27 -6 -4 0 -17 -6 -35 -11 -38 -5 -3 -10 -40 -10 -82 0 -61 4
-81 21 -105 l22 -30 81 6 c45 4 110 9 145 12 46 4 66 2 71 -7 5 -8 12 3 20 32
6 24 24 90 41 146 30 105 41 240 25 311 l-8 32 55 0 c65 0 55 -15 140 225 14
39 39 108 57 155 18 47 49 132 70 190 21 58 52 143 70 190 31 83 142 384 222
605 22 61 51 144 65 185 40 117 33 114 201 105 78 -4 142 -4 142 0 0 20 -94
233 -111 250 -18 19 -34 20 -249 21 -156 1 -233 -3 -239 -10z m-321 -836 c9
-14 -51 -198 -101 -308 -27 -59 -49 -74 -49 -34 0 9 -10 44 -21 77 -14 41 -21
86 -21 143 -1 78 1 85 28 113 27 29 32 31 92 27 39 -3 67 -9 72 -18z"/>
<path d="M4340 3063 c0 -40 -8 -95 -19 -129 -47 -151 -52 -174 -46 -205 4 -17
2 -52 -5 -78 -22 -90 -32 -126 -40 -146 -16 -38 -20 -87 -9 -106 6 -11 38 -38
71 -60 49 -31 70 -39 108 -39 27 0 52 -6 57 -12 10 -15 9 -249 -1 -267 -4 -6
-26 -11 -49 -11 -60 0 -114 -17 -131 -42 -13 -18 -12 -23 10 -47 13 -14 24
-29 24 -32 0 -3 -15 -14 -33 -23 -30 -17 -73 -87 -68 -111 2 -5 4 -25 7 -45 5
-38 20 -86 54 -162 5 -13 16 -48 24 -78 8 -30 22 -80 30 -110 33 -116 22 -184
-55 -342 -39 -82 -61 -98 -133 -98 -30 0 -58 -4 -61 -10 -3 -5 -20 -10 -36
-10 -17 0 -50 -5 -75 -11 l-44 -11 -2 -84 c-1 -46 -2 -96 -2 -111 -1 -25 4
-29 49 -39 108 -25 371 -11 495 26 48 14 120 69 152 116 33 48 58 140 57 214
0 63 -29 174 -88 345 -30 83 -44 143 -48 195 -4 70 -3 78 23 117 35 52 81 78
166 93 l67 12 -2 126 -2 125 -60 14 c-130 28 -205 100 -205 197 0 44 46 203
93 326 79 200 71 366 -21 471 -38 44 -141 97 -204 105 l-48 7 0 -70z"/>
<path d="M2868 3113 c-29 -5 -29 -8 -2 -70 8 -18 21 -50 30 -70 9 -21 20 -46
25 -55 5 -10 9 -25 9 -33 0 -8 4 -23 9 -33 19 -36 51 -112 51 -122 0 -6 9 -32
21 -58 26 -58 34 -77 49 -122 7 -19 18 -49 26 -65 21 -49 47 -116 124 -327 16
-42 35 -91 43 -110 8 -18 20 -49 27 -68 15 -43 23 -64 44 -112 9 -21 25 -63
36 -95 10 -32 35 -103 54 -158 20 -55 36 -110 36 -122 0 -40 -45 -53 -180 -53
-66 0 -120 -4 -120 -8 0 -5 6 -28 14 -53 8 -24 20 -70 26 -102 17 -86 29 -91
221 -96 l157 -3 4 23 c4 31 32 35 121 19 73 -13 86 -10 174 33 34 16 44 27 49
52 6 35 -9 134 -32 197 -8 24 -31 104 -50 178 -47 178 -46 244 9 351 20 41 37
85 37 98 0 14 5 39 12 57 10 29 9 38 -14 81 -33 61 -58 166 -58 246 0 34 11
106 25 160 14 54 25 109 25 123 0 13 12 60 26 103 22 67 24 83 15 118 -17 61
-47 76 -135 69 -187 -16 -186 -16 -198 -44 -24 -64 -39 -133 -44 -217 -6 -74
-3 -103 14 -163 22 -78 69 -160 108 -191 31 -24 30 -37 -3 -55 -16 -8 -42 -29
-59 -48 -81 -85 -102 -200 -64 -347 14 -58 18 -87 11 -94 -7 -7 -18 7 -36 47
-14 31 -25 60 -25 64 0 4 -18 54 -41 112 -23 58 -54 139 -69 180 -32 84 -103
265 -211 538 -40 101 -82 198 -93 215 -21 31 -24 32 -96 33 -41 1 -87 -1 -102
-3z m712 -1277 c0 -12 5 -27 11 -33 6 -6 9 -19 7 -29 -3 -16 -5 -15 -19 7 -9
13 -20 39 -23 57 -6 27 -5 31 8 26 9 -3 16 -16 16 -28z"/>
<path d="M2443 2607 c-17 -45 -37 -100 -44 -122 -6 -22 -15 -49 -20 -60 -4
-11 -13 -38 -20 -60 -6 -22 -15 -50 -20 -63 -5 -13 -9 -41 -9 -62 l0 -40 146
0 147 0 -6 63 c-8 91 -110 416 -133 424 -5 2 -23 -34 -41 -80z"/>
<path d="M2167 1698 c-14 -22 -23 -53 -48 -151 -6 -26 -24 -61 -39 -77 -24
-25 -36 -30 -78 -30 l-49 0 -32 -97 c-17 -54 -31 -106 -31 -116 0 -34 46 -41
260 -41 113 0 216 3 230 7 33 8 53 45 81 147 35 130 35 130 229 130 l161 0 -6
38 c-4 20 -10 48 -15 62 -5 14 -11 45 -15 70 -11 83 1 80 -336 80 l-299 0 -13
-22z"/>
<path d="M1428 928 c-21 -31 -108 -47 -270 -47 -76 -1 -138 -4 -138 -7 0 -3
12 -30 26 -59 27 -58 74 -104 139 -135 91 -44 377 -64 510 -37 l60 13 -2 139
c-1 77 -2 143 -3 148 0 11 -35 9 -152 -10 -98 -15 -108 -15 -131 0 -24 15 -26
15 -39 -5z"/>
</g>
</svg>
